<?xml version="1.0" encoding="UTF-8"?><svg id="Layer_1" xmlns="http://www.w3.org/2000/svg" viewBox="0 0 96.9 20.51"><defs><style>.cls-1{fill:#333;}</style></defs><path class="cls-1" d="M20.5,10.25c0-1.38-.56-2.68-1.49-3.63-.01-1.34-.54-2.65-1.51-3.62-.97-.97-2.25-1.51-3.62-1.52-.95-.93-2.25-1.49-3.63-1.49-1.37,0-2.67.55-3.63,1.49-1.37,0-2.65.55-3.62,1.51-.97.97-1.5,2.28-1.51,3.62-.94.95-1.49,2.25-1.49,3.63s.55,2.68,1.49,3.63c.01,1.34.54,2.65,1.51,3.62.97.97,2.25,1.51,3.62,1.51.95.93,2.25,1.49,3.63,1.49s2.67-.55,3.63-1.49c1.37,0,2.65-.55,3.62-1.51.97-.97,1.5-2.29,1.51-3.62.94-.95,1.49-2.25,1.49-3.63ZM18.53,8.36s0,.02,0,.03c-.44,1.09-.43,2.49,0,3.76,0,0,0,0,0,0,.14.4.23.81.27,1.22-.05.06-.1.11-.16.17-.02.02-.04.04-.07.06-.02-.46-.11-.92-.27-1.37-.45-1.31-.46-2.77-.01-3.92.17-.46.26-.94.28-1.41.08.08.16.16.23.24-.04.41-.13.82-.27,1.22ZM18.97,7.35c.65.81,1.02,1.83,1.02,2.91s-.36,2.1-1.02,2.91c-.05-.36-.13-.72-.26-1.07,0,0,0-.01,0-.02-.43-1.24-.43-2.61,0-3.66,0-.01,0-.02,0-.04.12-.34.2-.69.25-1.04ZM18.82,13.8c-.08.08-.16.15-.25.23,0-.11,0-.22,0-.32.04-.04.08-.08.12-.11.04-.04.08-.08.11-.12,0,.11.01.22.01.33ZM17.44,14.77s-.02,0-.02.02c-1.08.46-2.07,1.46-2.65,2.66,0,0,0,0,0,0-.18.38-.41.74-.67,1.05-.08,0-.15,0-.23,0-.03,0-.06,0-.09,0,.31-.35.57-.73.77-1.15.61-1.26,1.64-2.29,2.77-2.79.44-.21.84-.48,1.19-.79,0,.11,0,.21,0,.32-.32.26-.67.49-1.05.67ZM18.47,14.36c-.12,1.03-.57,2.02-1.33,2.78-.76.76-1.74,1.23-2.78,1.34.22-.29.42-.6.57-.94,0,0,0-.01,0-.02.57-1.18,1.54-2.14,2.59-2.58.01,0,.02-.01.03-.02.32-.16.63-.34.91-.56ZM13.8,18.82c-.11,0-.22,0-.33-.01.05-.04.09-.08.13-.13.03-.03.07-.07.1-.1.05,0,.11,0,.16,0s.11,0,.16,0c-.07.08-.15.17-.23.24ZM12.15,18.53s-.02,0-.03,0c-.54-.22-1.15-.33-1.8-.33s-1.34.11-1.96.33c0,0,0,0,0,0-.39.14-.79.23-1.2.27-.08-.07-.16-.15-.24-.23.46-.02.91-.11,1.35-.27.67-.23,1.37-.35,2.05-.35s1.31.11,1.87.33c.46.16.93.26,1.41.28-.02.02-.03.03-.05.05-.06.06-.12.12-.18.17-.42-.04-.82-.13-1.22-.27ZM13.16,18.97c-.82.66-1.84,1.02-2.91,1.02s-2.08-.38-2.89-1.02c.36-.05.71-.13,1.05-.26,0,0,.01,0,.02,0,.6-.21,1.26-.32,1.89-.32s1.24.11,1.77.33c0,0,.02,0,.03,0,0,0,0,0,0,0,.34.12.69.2,1.04.25ZM6.71,18.82c-.08-.08-.16-.16-.23-.25.06,0,.12,0,.18,0,.05,0,.1,0,.15,0,.08.08.15.16.24.23-.11,0-.23.01-.34.01ZM5.74,17.44s0-.01-.01-.02c-.46-1.08-1.46-2.07-2.66-2.66,0,0,0,0,0,0-.38-.18-.73-.4-1.04-.66,0-.11,0-.22,0-.32.34.3.72.56,1.14.76,1.26.61,2.3,1.64,2.79,2.77.21.44.48.84.8,1.19-.03,0-.05,0-.08,0-.08,0-.17,0-.25,0-.26-.32-.49-.67-.67-1.06ZM6.14,18.48c-1.05-.12-2.02-.58-2.78-1.34-.75-.75-1.21-1.74-1.32-2.77.28.22.59.41.93.57,0,0,.01,0,.02,0,1.18.57,2.14,1.54,2.58,2.59,0,.01.01.02.02.03.16.33.35.63.56.91ZM1.7,13.47c.08.08.15.16.24.24,0,.11,0,.22,0,.33-.09-.07-.17-.15-.25-.23,0-.11,0-.22.01-.34ZM1.98,12.15s0-.02,0-.03c.44-1.09.44-2.49,0-3.76,0,0,0,0,0,0-.14-.4-.23-.8-.27-1.21.07-.08.15-.16.22-.23.02.46.11.91.27,1.35.46,1.32.46,2.79.01,3.93-.17.46-.25.93-.28,1.41-.08-.08-.16-.16-.23-.24.04-.41.13-.82.27-1.22ZM1.53,13.16c-.65-.81-1.02-1.83-1.02-2.9s.37-2.09,1.02-2.9c.05.36.13.72.26,1.06,0,0,0,.01,0,.01.43,1.24.43,2.6,0,3.66,0,.01,0,.02,0,.03-.12.34-.2.69-.25,1.04ZM1.68,6.7c.08-.08.16-.15.25-.23,0,.11,0,.22,0,.34-.08.08-.16.15-.23.23,0-.11-.01-.23-.01-.34ZM3.06,5.74s.02,0,.02-.01c1.08-.46,2.07-1.46,2.66-2.67.18-.38.41-.73.67-1.05.09,0,.17,0,.26,0,.02,0,.04,0,.06,0-.31.35-.57.73-.77,1.15-.59,1.22-1.65,2.29-2.76,2.78-.44.21-.84.48-1.19.8,0-.11,0-.22,0-.33.32-.26.67-.49,1.05-.67ZM2.03,6.14c.12-1.03.57-2.02,1.33-2.78.75-.75,1.72-1.21,2.77-1.33-.21.28-.4.58-.56.91-.01.01-.02.03-.02.05-.57,1.18-1.54,2.14-2.59,2.57-.01,0-.02.01-.03.02-.33.16-.63.34-.91.56ZM6.71,1.68c.11,0,.22,0,.33.01-.05.04-.09.08-.14.13-.04.04-.07.07-.1.11-.04,0-.09,0-.13,0-.06,0-.13,0-.19,0,.08-.09.15-.17.23-.25ZM8.36,1.98s.02,0,.03,0c.54.22,1.14.33,1.8.33s1.34-.11,1.96-.33c.39-.14.79-.23,1.2-.27.08.07.16.15.24.23-.46.02-.92.12-1.35.27-.65.22-1.36.34-2.04.34s-1.32-.11-1.88-.33c-.46-.16-.94-.26-1.41-.28.02-.02.04-.04.05-.06.06-.06.12-.12.18-.17.42.04.82.13,1.22.27ZM7.34,1.53c.82-.66,1.84-1.02,2.91-1.02h0c1.06,0,2.08.38,2.89,1.02-.35.05-.69.13-1.03.25-.02,0-.04,0-.05.02-.6.21-1.25.31-1.88.31s-1.24-.11-1.76-.33c-.01,0-.03,0-.04,0-.34-.12-.69-.2-1.04-.25ZM13.8,1.68c.08.08.15.16.23.25-.06,0-.12,0-.18,0-.05,0-.1,0-.15,0-.08-.08-.15-.16-.24-.23.11,0,.23-.01.34-.01ZM14.77,3.06s0,.02.02.02c.46,1.08,1.46,2.07,2.66,2.66.38.18.73.4,1.04.66,0,.11,0,.22,0,.32-.34-.31-.72-.57-1.15-.77-1.25-.6-2.29-1.63-2.78-2.76-.21-.44-.48-.85-.81-1.2.03,0,.05,0,.08,0,.08,0,.17,0,.25,0,.26.32.49.67.67,1.06ZM14.36,2.03c1.05.12,2.02.58,2.78,1.34.75.75,1.21,1.74,1.32,2.77-.28-.21-.58-.4-.9-.55-.01-.01-.03-.02-.05-.03-1.17-.57-2.13-1.54-2.57-2.59,0-.01-.01-.02-.02-.03-.16-.33-.35-.63-.56-.91ZM18.49,6.83c-.02.49-.1.98-.27,1.46-.45,1.16-.45,2.64.01,3.97.17.46.25.94.27,1.41-.36.33-.77.61-1.22.82-1.14.5-2.19,1.55-2.81,2.83-.2.43-.47.83-.8,1.18-.49-.02-.97-.11-1.45-.28-.56-.22-1.22-.34-1.9-.34s-1.41.12-2.08.35c-.45.16-.91.25-1.39.27-.34-.36-.62-.77-.84-1.22-.5-1.14-1.55-2.19-2.83-2.81-.44-.21-.83-.48-1.17-.8.02-.49.1-.98.27-1.45.45-1.16.45-2.65-.01-3.98-.16-.46-.25-.93-.27-1.4.35-.33.76-.61,1.22-.83,1.12-.49,2.2-1.57,2.8-2.82.2-.43.47-.83.8-1.18.49.02.98.11,1.46.28.55.22,1.21.33,1.91.33s1.42-.12,2.07-.34c.45-.16.92-.25,1.4-.27.34.36.62.77.84,1.23.5,1.14,1.55,2.19,2.82,2.8.44.21.83.48,1.18.8ZM18.57,6.8c0-.11,0-.22,0-.33.09.08.17.15.25.23,0,.11,0,.22-.01.34-.08-.08-.16-.16-.24-.24ZM17.37,3.14c.89.89,1.39,2.07,1.45,3.29-.09-.08-.17-.15-.27-.23-.11-1.08-.57-2.11-1.35-2.89-.79-.79-1.81-1.27-2.9-1.37-.07-.09-.14-.17-.22-.26,1.25.06,2.41.57,3.3,1.45ZM13.6,1.49c-.12,0-.23.02-.35.03-.84-.69-1.89-1.09-3-1.09h0c-1.11,0-2.17.38-3.02,1.08-.11-.01-.22-.02-.33-.03.9-.82,2.09-1.3,3.35-1.3,1.26,0,2.44.48,3.35,1.3ZM3.14,3.14c.89-.89,2.05-1.4,3.3-1.45-.08.09-.15.17-.23.27-1.08.1-2.11.57-2.9,1.36-.79.79-1.26,1.82-1.36,2.9-.09.07-.17.14-.26.22.06-1.22.56-2.4,1.45-3.29ZM.19,10.25c0-1.26.48-2.45,1.3-3.35,0,.11.01.23.03.34-.69.84-1.09,1.89-1.09,3.01s.4,2.18,1.09,3.01c-.01.11-.02.23-.03.34-.82-.9-1.3-2.09-1.3-3.35ZM3.14,17.37c-.89-.89-1.39-2.07-1.45-3.29.09.08.17.15.26.23.11,1.08.57,2.11,1.36,2.89.79.79,1.81,1.26,2.9,1.37.07.09.15.18.22.26-1.25-.06-2.41-.57-3.3-1.45ZM6.9,19.01c.12,0,.23-.02.35-.03.84.69,1.89,1.09,3,1.09s2.17-.38,3.02-1.08c.11.01.22.02.33.03-.9.82-2.09,1.3-3.35,1.3s-2.45-.48-3.35-1.3ZM17.37,17.37c-.89.89-2.05,1.4-3.3,1.45.08-.08.15-.17.22-.26,1.09-.1,2.11-.58,2.91-1.37.79-.79,1.26-1.82,1.36-2.9.09-.07.17-.14.26-.22-.06,1.22-.56,2.4-1.45,3.29ZM18.98,13.28c.7-.84,1.09-1.9,1.09-3.02s-.4-2.18-1.09-3.01c.01-.11.02-.23.03-.34.82.9,1.3,2.09,1.3,3.35s-.48,2.45-1.3,3.35c0-.11-.01-.22-.03-.33Z"/><path class="cls-1" d="M23.16,8.84c.35-.3.68-.47,1.08-.47.68,0,1.25.47,1.25,1.25v2.5h-.92v-1.73c0-.72-.06-1.18-.62-1.18-.25,0-.48.12-.62.35-.19.3-.18.63-.18,1.01v1.56h-.92v-3.66h.92v.37Z"/><path class="cls-1" d="M27.33,7.57c0,.32-.26.59-.59.59s-.59-.3-.59-.63c0-.32.27-.56.59-.56s.59.28.59.61ZM26.29,8.47h.92v3.66h-.92v-3.66Z"/><path class="cls-1" d="M31.58,11.46c-.39.51-.94.76-1.66.76-1.25,0-2.05-.85-2.05-1.91s.85-1.94,2.07-1.94c.72,0,1.32.3,1.69.83l-.76.42c-.26-.28-.52-.41-.92-.41-.7,0-1.15.48-1.15,1.11s.43,1.06,1.11,1.06c.41,0,.73-.14.96-.42l.72.5Z"/><path class="cls-1" d="M35.88,11.42c-.39.56-.91.81-1.68.81-1.16,0-1.91-.85-1.91-1.93,0-1,.72-1.92,1.9-1.92s1.94.83,1.94,1.98c0,.08,0,.12,0,.21h-2.95c.09.54.5.85,1.03.85.39,0,.65-.11.91-.36l.77.37ZM35.2,9.84c-.12-.43-.52-.69-1.01-.69-.45,0-.81.23-.99.69h1.99Z"/><path class="cls-1" d="M39.56,11.74c-.32.32-.67.48-1.13.48-.93,0-1.74-.8-1.74-1.92s.77-1.93,1.72-1.93c.44,0,.82.17,1.15.5v-.4h.92v3.66h-.92v-.39ZM37.62,10.29c0,.63.41,1.09.98,1.09s1.01-.43,1.01-1.09-.43-1.07-1.01-1.07-.98.48-.98,1.08Z"/><path class="cls-1" d="M42.32,8.84c.35-.3.67-.47,1.08-.47.68,0,1.25.47,1.25,1.25v2.5h-.92v-1.73c0-.72-.06-1.18-.62-1.18-.25,0-.48.12-.62.35-.19.3-.18.63-.18,1.01v1.56h-.92v-3.66h.92v.37Z"/><path class="cls-1" d="M48.25,11.74c-.32.32-.67.48-1.13.48-.93,0-1.74-.8-1.74-1.92s.77-1.93,1.72-1.93c.44,0,.82.17,1.15.5v-1.81h.92v5.07h-.92v-.39ZM46.3,10.29c0,.63.41,1.09.98,1.09s1.01-.43,1.01-1.09-.43-1.07-1.01-1.07-.98.48-.98,1.08Z"/><path class="cls-1" d="M50.82,10.54c-.59-.3-.88-.65-.88-1.12,0-.57.48-1.05,1.18-1.05.48,0,.91.21,1.21.61l-.56.57c-.21-.21-.41-.34-.63-.34-.19,0-.33.08-.33.22s.13.2.33.3l.34.17c.61.31.93.63.93,1.17,0,.65-.52,1.14-1.32,1.14-.53,0-.96-.21-1.28-.63l.56-.62c.21.25.52.43.76.43.23,0,.41-.13.41-.3s-.15-.28-.41-.41l-.31-.16Z"/><path class="cls-1" d="M52.71,8.47h.9l.73,2.08.79-2.08h.55l.78,2.05.74-2.05h.9l-1.33,3.66h-.59l-.78-2.09-.81,2.09h-.57l-1.32-3.66Z"/><path class="cls-1" d="M62.06,11.42c-.39.56-.91.81-1.68.81-1.16,0-1.91-.85-1.91-1.93,0-1,.72-1.92,1.9-1.92s1.94.83,1.94,1.98c0,.08,0,.12,0,.21h-2.95c.09.54.5.85,1.03.85.39,0,.65-.11.91-.36l.77.37ZM61.39,9.84c-.12-.43-.52-.69-1.01-.69-.45,0-.81.23-.99.69h1.99Z"/><path class="cls-1" d="M66.47,11.42c-.39.56-.91.81-1.68.81-1.16,0-1.91-.85-1.91-1.93,0-1,.72-1.92,1.9-1.92s1.94.83,1.94,1.98c0,.08,0,.12,0,.21h-2.95c.09.54.5.85,1.03.85.39,0,.65-.11.91-.36l.77.37ZM65.8,9.84c-.12-.43-.52-.69-1.01-.69-.45,0-.81.23-.99.69h1.99Z"/><path class="cls-1" d="M67.56,6.63l.92.49v1.35h.54v.79h-.54v2.87h-.92v-2.87h-.47v-.79h.47v-1.84Z"/><path class="cls-1" d="M69.63,7.12l.92-.49v1.84h.54v.79h-.54v2.87h-.92v-2.87h-.47v-.79h.47v-1.35Z"/><path class="cls-1" d="M75.21,11.6c0,.71-.14,1.18-.56,1.54-.33.28-.77.41-1.33.41-1.01,0-1.65-.39-1.89-1.16h1.01c.19.22.46.32.85.32.34,0,.61-.09.78-.24.22-.21.23-.45.23-.8-.3.3-.63.45-1.11.45-.98,0-1.76-.79-1.76-1.88s.78-1.87,1.71-1.87c.45,0,.81.17,1.16.5v-.4l.92-.49v3.62ZM72.35,10.25c0,.61.43,1.03,1.01,1.03s.99-.41.99-1.03-.39-1.05-1-1.05-.99.48-.99,1.04Z"/><path class="cls-1" d="M79.8,10.29c0,1.06-.82,1.93-1.94,1.93s-1.9-.85-1.9-1.92.9-1.93,1.89-1.93c1.07,0,1.94.84,1.94,1.92ZM76.89,10.29c0,.62.39,1.06.98,1.06s1.01-.41,1.01-1.05-.41-1.06-1.01-1.06-.98.45-.98,1.05Z"/><path class="cls-1" d="M81.57,11.69c0,.29-.23.53-.52.53s-.53-.24-.53-.53.24-.52.53-.52.52.23.52.52Z"/><path class="cls-1" d="M86.02,11.46c-.39.51-.94.76-1.66.76-1.25,0-2.05-.85-2.05-1.91s.85-1.94,2.07-1.94c.72,0,1.32.3,1.69.83l-.76.42c-.26-.28-.52-.41-.92-.41-.7,0-1.15.48-1.15,1.11s.43,1.06,1.11,1.06c.41,0,.73-.14.96-.42l.72.5Z"/><path class="cls-1" d="M90.55,10.29c0,1.06-.82,1.93-1.94,1.93s-1.9-.85-1.9-1.92.9-1.93,1.89-1.93c1.07,0,1.94.84,1.94,1.92ZM87.64,10.29c0,.62.39,1.06.98,1.06s1.01-.41,1.01-1.05-.41-1.06-1.01-1.06-.98.45-.98,1.05Z"/><path class="cls-1" d="M94.56,12.13h-.92v-1.77c0-.71-.14-1.14-.65-1.14-.45,0-.79.37-.79,1.12v1.79h-.92v-3.66h.92v.42c.31-.34.71-.52,1.14-.52s.84.21,1.07.65c.34-.43.67-.65,1.23-.65.41,0,.77.17.98.43.24.3.27.7.27,1.18v2.14h-.92v-2.02c0-.6-.21-.9-.63-.9-.46,0-.79.36-.79,1.11v1.8Z"/></svg>