<?xml version="1.0" encoding="UTF-8"?><svg id="Main_1" xmlns="http://www.w3.org/2000/svg" xmlns:xlink="http://www.w3.org/1999/xlink" viewBox="0 0 355.48 129.97"><defs><style>.cls-1{fill:#010101;}.cls-2{fill:#fff;}.cls-3{fill:url(#linear-gradient);}</style><linearGradient id="linear-gradient" x1="285.98" y1="-2.19" x2="354.79" y2="113.54" gradientUnits="userSpaceOnUse"><stop offset=".2" stop-color="#ccc"/><stop offset=".33" stop-color="#d5d5d5"/><stop offset=".94" stop-color="#fff"/></linearGradient></defs><path class="cls-3" d="M355.48,0v92.28c0,20.79-16.91,37.69-37.69,37.69s-37.69-16.91-37.69-37.69V0h75.39Z"/><path class="cls-2" d="M346.85,89.19c0-3.96-1.6-7.71-4.3-10.46-.04-3.85-1.55-7.63-4.36-10.43-2.79-2.79-6.5-4.34-10.44-4.37-2.75-2.69-6.49-4.29-10.45-4.29-3.96,0-7.7,1.6-10.45,4.29-3.94.03-7.65,1.57-10.44,4.37-2.8,2.8-4.32,6.58-4.36,10.44-2.7,2.75-4.29,6.49-4.29,10.46s1.6,7.71,4.3,10.46c.04,3.85,1.56,7.63,4.36,10.43,2.79,2.79,6.5,4.34,10.44,4.37,2.75,2.69,6.49,4.29,10.45,4.29s7.71-1.6,10.45-4.29c3.94-.03,7.65-1.57,10.44-4.36,2.8-2.8,4.32-6.59,4.36-10.44,2.7-2.75,4.29-6.49,4.29-10.46ZM341.15,83.74s-.01.05-.01.08c-1.25,3.14-1.25,7.18.02,10.83,0,0,0,0,0,.01.41,1.15.66,2.33.77,3.52-.15.16-.3.32-.46.48-.06.06-.13.12-.19.18-.06-1.33-.32-2.65-.78-3.94-1.31-3.78-1.33-7.99-.04-11.29.48-1.33.74-2.71.8-4.08.23.22.45.45.66.69-.11,1.18-.36,2.36-.78,3.51ZM342.43,80.82c1.86,2.34,2.95,5.28,2.95,8.37s-1.04,6.04-2.94,8.4c-.13-1.04-.38-2.07-.74-3.08,0-.02-.01-.04-.02-.05-1.23-3.57-1.23-7.51.02-10.54.01-.03.02-.07.02-.1.34-.98.58-1.98.71-2.99ZM341.99,99.42c-.23.23-.47.45-.71.66.01-.31.02-.62,0-.93.12-.11.23-.22.34-.33.11-.11.22-.23.33-.34.02.32.03.63.04.95ZM338.02,102.2s-.05.03-.07.05c-3.11,1.34-5.96,4.2-7.65,7.68,0,0,0,0,0,0-.52,1.11-1.18,2.12-1.94,3.04-.22.01-.44.02-.66.02-.09,0-.17,0-.26,0,.9-1,1.65-2.11,2.22-3.32,1.76-3.62,4.71-6.61,7.98-8.04,1.27-.6,2.42-1.37,3.44-2.28,0,.31,0,.62-.02.93-.92.76-1.93,1.42-3.03,1.93ZM340.99,101.04c-.34,2.97-1.65,5.82-3.84,8-2.19,2.2-5,3.54-8.02,3.86.64-.83,1.2-1.73,1.65-2.7.01-.02.02-.04.03-.06,1.65-3.39,4.44-6.17,7.47-7.43.03-.01.06-.03.09-.06.94-.45,1.81-.99,2.61-1.61ZM327.52,113.89c-.32,0-.63-.02-.95-.04.13-.12.26-.24.39-.37.1-.1.19-.19.28-.29.15,0,.31.01.46.01s.32,0,.47-.01c-.21.24-.43.48-.65.7ZM322.76,113.04s-.05-.01-.08-.01c-1.56-.62-3.3-.94-5.19-.94s-3.85.33-5.65.95c0,0,0,0-.01,0-1.12.4-2.28.66-3.46.78-.24-.21-.46-.43-.68-.65,1.33-.07,2.63-.33,3.88-.78,1.93-.67,3.96-1,5.92-1s3.77.32,5.4.96c1.33.47,2.69.74,4.05.82-.05.05-.09.1-.14.15-.17.17-.35.34-.53.5-1.2-.11-2.38-.38-3.51-.79ZM325.69,114.32c-2.37,1.9-5.3,2.94-8.38,2.94s-5.99-1.08-8.34-2.94c1.03-.14,2.05-.38,3.03-.74.02,0,.03-.01.05-.02,1.74-.6,3.62-.92,5.45-.92s3.57.32,5.09.94c.03.01.05.02.08.02,0,0,.02,0,.03,0,.97.34,1.98.58,2.99.71ZM307.09,113.9c-.23-.23-.45-.47-.66-.71.18,0,.35.01.53.01.15,0,.29,0,.44,0,.22.23.45.45.68.67-.33.03-.66.04-.99.04ZM304.3,109.91s-.02-.04-.04-.06c-1.34-3.12-4.2-5.97-7.68-7.65,0,0,0,0,0,0-1.09-.51-2.09-1.16-3-1.91-.02-.31-.03-.62-.02-.93.97.88,2.08,1.63,3.29,2.2,3.62,1.76,6.62,4.73,8.03,7.98.6,1.28,1.39,2.43,2.32,3.44-.08,0-.16,0-.23,0-.24,0-.48,0-.72-.02-.76-.92-1.42-1.93-1.94-3.04ZM305.47,112.89c-3.02-.33-5.83-1.67-8.01-3.85-2.17-2.17-3.48-5-3.82-7.98.82.63,1.71,1.18,2.67,1.63.01,0,.03.02.05.02,3.39,1.65,6.17,4.44,7.44,7.47.01.03.03.06.05.08.45.94,1,1.82,1.62,2.63ZM292.65,98.45c.22.24.45.47.68.69,0,.32,0,.63,0,.95-.25-.22-.49-.44-.73-.67,0-.32.01-.65.04-.97ZM293.45,94.65s.01-.05.01-.07c1.26-3.15,1.25-7.19-.02-10.84,0,0,0,0,0,0-.41-1.14-.66-2.32-.77-3.5.21-.23.42-.45.65-.67.07,1.31.32,2.63.77,3.9,1.31,3.81,1.33,8.03.04,11.32-.48,1.33-.73,2.69-.8,4.06-.23-.22-.45-.45-.66-.69.11-1.18.36-2.36.78-3.51ZM292.18,97.56c-1.86-2.34-2.94-5.28-2.94-8.37s1.07-6.03,2.94-8.37c.14,1.03.38,2.06.74,3.07,0,.02,0,.03.02.04,1.24,3.57,1.23,7.51-.02,10.54-.01.03-.02.07-.02.1-.34.98-.58,1.98-.71,2.99ZM292.61,78.97c.23-.23.47-.45.71-.66-.01.32-.02.64,0,.97-.23.22-.45.44-.67.67-.02-.33-.04-.66-.04-.98ZM296.58,76.19s.05-.03.06-.04c3.11-1.33,5.96-4.19,7.65-7.68.52-1.1,1.17-2.1,1.92-3.01.25-.01.5-.02.75-.02.06,0,.12,0,.17,0-.9,1-1.64,2.11-2.21,3.32-1.71,3.51-4.76,6.61-7.97,8.01-1.28.61-2.43,1.39-3.44,2.31,0-.32,0-.64.02-.95.92-.76,1.93-1.41,3.03-1.93ZM293.62,77.35c.34-2.97,1.65-5.82,3.84-8,2.17-2.17,4.96-3.5,7.99-3.83-.62.81-1.16,1.68-1.61,2.62-.03.04-.06.08-.06.14-1.65,3.39-4.44,6.16-7.46,7.41-.03.01-.06.03-.08.06-.94.45-1.81.99-2.62,1.61ZM307.09,64.49c.32,0,.63.02.95.04-.13.12-.26.24-.39.37-.1.1-.2.21-.3.31-.12,0-.25,0-.37,0-.19,0-.37,0-.56.01.22-.25.44-.49.67-.73ZM311.85,65.35s.05.01.08.01c1.55.62,3.3.94,5.18.94s3.85-.33,5.66-.96c1.12-.41,2.28-.66,3.46-.78.23.21.46.42.68.65-1.34.07-2.65.33-3.9.78-1.87.65-3.91.97-5.88.97s-3.81-.31-5.41-.94c-1.34-.47-2.71-.74-4.07-.8.05-.05.1-.11.16-.16.17-.17.35-.34.53-.5,1.2.11,2.38.38,3.51.79ZM308.92,64.06c2.37-1.9,5.3-2.94,8.38-2.94h0c3.06,0,5.99,1.08,8.33,2.94-1.01.14-2,.37-2.97.71-.05,0-.1.02-.14.05-1.73.59-3.6.91-5.42.91s-3.57-.32-5.08-.94c-.03-.01-.07-.02-.1-.02-.98-.34-1.98-.58-3-.72ZM327.52,64.49c.23.23.45.46.66.71-.18,0-.35-.01-.53-.01-.15,0-.3,0-.44,0-.22-.23-.44-.45-.68-.66.33-.03.66-.04.99-.04ZM330.31,68.47s.03.05.05.07c1.34,3.11,4.2,5.96,7.68,7.65,1.09.51,2.09,1.16,3,1.91.02.31.03.62.02.93-.98-.88-2.09-1.63-3.31-2.21-3.6-1.74-6.59-4.71-8.01-7.96-.6-1.28-1.4-2.44-2.32-3.45.08,0,.16,0,.24,0,.24,0,.48,0,.72.02.76.92,1.42,1.93,1.94,3.04ZM329.14,65.5c3.02.33,5.83,1.67,8.01,3.85,2.17,2.17,3.47,5,3.82,7.98-.8-.61-1.66-1.15-2.59-1.59-.04-.04-.1-.07-.16-.08-3.38-1.65-6.14-4.44-7.4-7.45-.01-.04-.04-.06-.06-.09-.45-.94-1-1.82-1.62-2.63ZM341.05,79.33c-.04,1.41-.3,2.83-.79,4.2-1.31,3.34-1.29,7.62.04,11.45.48,1.32.73,2.7.77,4.07-1.03.95-2.22,1.75-3.52,2.37-3.28,1.44-6.3,4.48-8.09,8.15-.59,1.25-1.37,2.39-2.31,3.41-1.4-.06-2.81-.33-4.17-.82-1.63-.64-3.52-.98-5.48-.98s-4.07.35-6,1.01c-1.29.46-2.63.72-4,.77-.97-1.03-1.79-2.21-2.41-3.53-1.43-3.28-4.47-6.3-8.14-8.09-1.26-.59-2.39-1.38-3.38-2.3.04-1.41.3-2.82.79-4.18,1.31-3.33,1.29-7.62-.04-11.48-.47-1.31-.72-2.67-.77-4.03,1.02-.95,2.2-1.76,3.52-2.39,3.23-1.41,6.33-4.52,8.08-8.12.58-1.25,1.36-2.39,2.3-3.41,1.43.05,2.84.31,4.19.8,1.6.62,3.5.95,5.49.95s4.1-.34,5.96-.99c1.3-.47,2.65-.73,4.03-.78.97,1.03,1.8,2.22,2.42,3.54,1.44,3.29,4.48,6.3,8.12,8.07,1.26.59,2.4,1.38,3.4,2.3ZM341.27,79.24c0-.32,0-.63,0-.95.25.22.5.44.73.67,0,.32-.01.64-.04.97-.22-.24-.45-.47-.68-.69ZM337.8,68.7c2.56,2.56,4,5.97,4.17,9.48-.25-.23-.5-.44-.76-.65-.31-3.11-1.64-6.08-3.9-8.33-2.27-2.27-5.21-3.65-8.37-3.94-.21-.26-.42-.5-.64-.74,3.59.16,6.94,1.63,9.5,4.19ZM326.95,63.95c-.33.02-.67.04-1,.08-2.41-1.98-5.45-3.13-8.64-3.13h0c-3.21,0-6.25,1.1-8.69,3.12-.32-.03-.63-.06-.95-.08,2.6-2.36,6.03-3.75,9.65-3.75,3.62,0,7.04,1.39,9.65,3.75ZM296.8,68.7c2.56-2.56,5.91-4.03,9.5-4.19-.23.25-.45.5-.66.77-3.12.3-6.07,1.64-8.35,3.92-2.27,2.27-3.62,5.25-3.92,8.36-.25.2-.5.42-.74.64.17-3.51,1.61-6.92,4.17-9.48ZM288.31,89.19c0-3.62,1.39-7.05,3.76-9.66.01.33.04.66.08.99-1.99,2.41-3.13,5.45-3.13,8.67s1.15,6.27,3.13,8.68c-.04.32-.06.65-.08.98-2.36-2.6-3.75-6.04-3.75-9.66ZM296.8,109.69c-2.56-2.56-4-5.97-4.17-9.48.25.23.5.44.76.65.31,3.11,1.65,6.08,3.91,8.34,2.27,2.27,5.21,3.64,8.36,3.94.21.26.42.51.64.75-3.59-.16-6.94-1.63-9.5-4.19ZM307.66,114.44c.33-.02.67-.04,1-.08,2.41,1.98,5.46,3.13,8.65,3.13s6.25-1.1,8.69-3.12c.32.03.63.06.95.08-2.6,2.36-6.03,3.75-9.65,3.75s-7.05-1.39-9.65-3.75ZM337.8,109.69c-2.56,2.56-5.91,4.03-9.5,4.19.22-.24.43-.48.63-.74,3.15-.29,6.09-1.66,8.37-3.95,2.27-2.27,3.62-5.25,3.92-8.35.25-.2.5-.41.74-.63-.17,3.51-1.61,6.92-4.17,9.48ZM342.46,97.9c2.03-2.43,3.13-5.48,3.13-8.71s-1.15-6.28-3.13-8.68c.04-.32.06-.65.08-.97,2.36,2.6,3.76,6.03,3.76,9.66s-1.39,7.05-3.76,9.66c-.01-.32-.04-.63-.07-.95Z"/><path class="cls-1" d="M317.3,59.65c-3.96,0-7.7,1.6-10.45,4.29-3.94.03-7.65,1.57-10.44,4.37-2.8,2.8-4.32,6.58-4.36,10.44-2.7,2.75-4.29,6.49-4.29,10.46s1.6,7.71,4.3,10.46c.04,3.85,1.56,7.63,4.36,10.43,2.79,2.79,6.5,4.34,10.44,4.37,2.75,2.69,6.49,4.29,10.45,4.29s7.71-1.6,10.45-4.29c3.94-.03,7.65-1.57,10.44-4.36,2.8-2.8,4.32-6.59,4.36-10.44,2.7-2.75,4.29-6.49,4.29-10.46s-1.6-7.71-4.3-10.46c-.04-3.85-1.55-7.63-4.36-10.43-2.79-2.79-6.5-4.34-10.44-4.37-2.75-2.69-6.49-4.29-10.45-4.29h0ZM308.61,64.03c-.32-.03-.63-.06-.95-.08,2.6-2.36,6.03-3.75,9.65-3.75,3.62,0,7.04,1.39,9.65,3.75-.33.02-.67.04-1,.08-2.41-1.98-5.45-3.13-8.64-3.13h0c-3.21,0-6.25,1.1-8.69,3.12h0ZM311.92,64.78c-.98-.34-1.98-.58-3-.72,2.37-1.9,5.3-2.94,8.38-2.94h0c3.06,0,5.99,1.08,8.33,2.94-1.01.14-2,.37-2.97.71-.05,0-.1.02-.15.05-1.73.59-3.6.91-5.42.91s-3.57-.32-5.08-.94c-.03-.01-.07-.02-.09-.02,0,0,0,0,0,0h0ZM327.21,65.2c-.22-.23-.44-.45-.68-.66.33-.03.66-.04.99-.04.23.23.45.46.66.71-.18,0-.35-.01-.53-.01-.15,0-.3,0-.44,0h0ZM306.41,65.22c.22-.25.44-.49.67-.73.32,0,.63.02.95.04-.13.12-.26.24-.39.37-.1.1-.2.21-.3.31-.12,0-.25,0-.37,0-.19,0-.37,0-.56.01h0ZM341.97,78.18c-.25-.23-.5-.44-.76-.65-.31-3.11-1.64-6.08-3.9-8.33-2.27-2.27-5.21-3.65-8.37-3.94-.21-.26-.42-.5-.64-.74,3.59.16,6.94,1.63,9.5,4.19,2.56,2.56,4,5.97,4.17,9.48h0ZM292.63,78.18c.17-3.51,1.61-6.92,4.17-9.48,2.56-2.56,5.91-4.03,9.5-4.19-.23.25-.45.5-.66.77-3.12.3-6.07,1.64-8.35,3.92-2.27,2.27-3.62,5.25-3.92,8.36-.25.2-.5.42-.74.64h0ZM317.13,66.97c-1.93,0-3.81-.31-5.41-.94-1.34-.47-2.71-.74-4.07-.8.05-.05.1-.11.16-.16.17-.17.35-.34.53-.5,1.2.11,2.38.38,3.51.79.03,0,.05.01.08.01,1.55.62,3.3.94,5.18.94s3.85-.33,5.66-.96c1.12-.41,2.28-.66,3.46-.78.23.21.46.42.68.65-1.34.07-2.65.33-3.9.78-1.87.65-3.91.97-5.89.97h0ZM341.06,79.03c-.98-.88-2.09-1.63-3.31-2.21-3.6-1.74-6.59-4.71-8.01-7.96-.6-1.28-1.4-2.44-2.32-3.45.08,0,.16,0,.24,0,.24,0,.48,0,.72.02.76.92,1.42,1.93,1.94,3.04.01.03.03.05.05.07,1.34,3.11,4.2,5.96,7.68,7.65,1.09.51,2.09,1.16,3,1.91.02.31.03.62.02.93h0ZM317.13,67.19c2.03,0,4.1-.34,5.96-.99,1.3-.47,2.65-.73,4.03-.78.97,1.03,1.8,2.22,2.42,3.54,1.44,3.29,4.48,6.3,8.12,8.07,1.26.59,2.4,1.38,3.4,2.3-.04,1.41-.3,2.83-.79,4.2-1.31,3.34-1.29,7.62.04,11.45.48,1.32.73,2.7.77,4.07-1.03.95-2.22,1.75-3.52,2.37-3.28,1.44-6.3,4.48-8.09,8.15-.59,1.25-1.37,2.39-2.31,3.41-1.4-.06-2.81-.33-4.17-.82-1.63-.64-3.52-.98-5.48-.98s-4.07.35-6,1.01c-1.29.46-2.63.72-4,.77-.97-1.03-1.79-2.21-2.41-3.53-1.43-3.28-4.47-6.3-8.14-8.09-1.26-.59-2.39-1.38-3.38-2.3.04-1.41.3-2.82.79-4.18,1.31-3.33,1.29-7.62-.04-11.48-.47-1.31-.72-2.67-.77-4.03,1.02-.95,2.2-1.76,3.52-2.39,3.23-1.41,6.33-4.52,8.08-8.12.58-1.25,1.36-2.39,2.3-3.41,1.43.05,2.84.31,4.19.8,1.6.62,3.5.95,5.49.95h0ZM293.53,79.07c0-.32,0-.64.02-.95.92-.76,1.93-1.41,3.03-1.93.02-.01.05-.03.06-.04,3.11-1.33,5.96-4.19,7.65-7.68.52-1.1,1.17-2.1,1.92-3.01.25-.01.5-.02.75-.02.06,0,.12,0,.17,0-.9,1-1.64,2.11-2.21,3.32-1.71,3.51-4.76,6.61-7.97,8.01-1.28.61-2.43,1.39-3.44,2.31h0ZM340.96,77.33c-.8-.61-1.66-1.15-2.59-1.59-.04-.04-.1-.07-.16-.08-3.38-1.65-6.14-4.44-7.4-7.45-.01-.04-.04-.06-.06-.09-.45-.94-1-1.82-1.62-2.63,3.02.33,5.83,1.67,8.01,3.85,2.17,2.17,3.47,5,3.82,7.98h0ZM293.62,77.35c.34-2.97,1.65-5.82,3.84-8,2.17-2.17,4.96-3.5,7.99-3.83-.62.81-1.16,1.68-1.61,2.62-.03.04-.06.08-.06.14-1.65,3.39-4.44,6.16-7.46,7.41-.03.01-.06.03-.08.06-.94.45-1.81.99-2.62,1.61h0ZM341.95,79.93c-.22-.24-.45-.47-.68-.69,0-.32,0-.63,0-.95.25.22.49.44.73.67,0,.32-.01.64-.04.97h0ZM292.65,79.95c-.02-.33-.04-.66-.04-.98.23-.23.47-.45.71-.66-.01.32-.02.64,0,.97-.23.22-.45.44-.67.67h0ZM342.54,98.85c-.01-.32-.04-.63-.07-.95,2.03-2.43,3.13-5.48,3.13-8.71s-1.15-6.28-3.13-8.68c.04-.32.06-.65.08-.97,2.36,2.6,3.76,6.03,3.76,9.66s-1.39,7.05-3.76,9.66h0ZM292.07,98.85c-2.36-2.6-3.75-6.04-3.75-9.66s1.39-7.05,3.76-9.66c.01.33.04.66.08.99-1.99,2.41-3.13,5.45-3.13,8.67s1.15,6.27,3.13,8.68c-.04.32-.06.65-.08.98h0ZM341.28,98.84c-.06-1.33-.32-2.65-.78-3.94-1.31-3.78-1.33-7.99-.04-11.29.48-1.33.74-2.71.8-4.08.23.22.45.45.66.69-.11,1.18-.36,2.36-.78,3.51,0,.03-.01.05-.01.08-1.25,3.14-1.25,7.18.02,10.83,0,0,0,0,0,.01.41,1.15.66,2.33.77,3.52-.15.16-.3.32-.46.48-.06.06-.13.12-.19.18h0ZM293.34,98.85c-.23-.22-.45-.45-.66-.69.11-1.18.36-2.36.78-3.51,0-.02.01-.05.01-.07,1.26-3.15,1.25-7.19-.02-10.84,0,0,0,0,0,0-.41-1.14-.66-2.32-.77-3.5.21-.23.42-.45.65-.67.07,1.31.32,2.63.77,3.9,1.31,3.81,1.33,8.03.04,11.32-.48,1.33-.73,2.69-.8,4.06h0ZM342.43,97.59c-.13-1.04-.38-2.07-.74-3.08,0-.02-.01-.04-.02-.05-1.23-3.57-1.23-7.51.02-10.54.01-.03.02-.07.02-.1.34-.98.58-1.98.71-2.99,1.86,2.34,2.95,5.28,2.95,8.37s-1.04,6.04-2.94,8.4h0ZM292.18,97.56c-1.86-2.34-2.94-5.28-2.94-8.37s1.07-6.03,2.94-8.37c.14,1.03.38,2.06.74,3.07,0,.02,0,.03.02.04,1.24,3.57,1.23,7.51-.02,10.54-.01.03-.02.07-.02.1-.34.98-.58,1.98-.71,2.99h0ZM293.34,100.1c-.25-.22-.49-.44-.73-.67,0-.32.01-.65.04-.97.22.24.45.47.68.69,0,.32,0,.63,0,.95h0ZM341.28,100.08c.01-.31.02-.62,0-.93.12-.11.23-.22.34-.33.11-.11.22-.23.33-.34.02.32.03.63.04.95-.23.23-.47.45-.71.66h0ZM327.7,112.98c-.09,0-.17,0-.26,0,.9-1,1.65-2.11,2.22-3.32,1.76-3.62,4.71-6.61,7.98-8.04,1.27-.6,2.42-1.37,3.44-2.28,0,.31,0,.62-.02.93-.92.76-1.93,1.42-3.03,1.93-.03.01-.05.03-.07.05-3.11,1.34-5.96,4.2-7.65,7.68,0,0,0,0,0,0-.52,1.11-1.18,2.12-1.94,3.04-.22.01-.44.02-.66.02h0ZM306.96,112.98c-.24,0-.48,0-.72-.02-.76-.92-1.42-1.93-1.94-3.04-.01-.02-.02-.04-.04-.06-1.34-3.12-4.2-5.97-7.68-7.65,0,0,0,0,0,0-1.09-.51-2.09-1.16-3-1.91-.02-.31-.03-.62-.02-.93.97.88,2.08,1.63,3.29,2.2,3.62,1.76,6.62,4.73,8.03,7.98.6,1.28,1.39,2.43,2.32,3.44-.08,0-.16,0-.23,0h0ZM306.3,113.88c-3.59-.16-6.94-1.63-9.5-4.19-2.56-2.56-4-5.97-4.17-9.48.25.23.5.44.76.65.31,3.11,1.65,6.08,3.91,8.34,2.27,2.27,5.21,3.64,8.36,3.94.21.26.42.51.64.75h0ZM328.3,113.88c.22-.24.43-.48.63-.74,3.15-.29,6.09-1.66,8.37-3.95,2.27-2.27,3.62-5.25,3.92-8.35.25-.2.5-.41.74-.63-.17,3.51-1.61,6.92-4.17,9.48-2.56,2.56-5.91,4.03-9.5,4.19h0ZM329.14,112.9c.64-.83,1.2-1.73,1.65-2.7.01-.02.02-.04.03-.06,1.65-3.39,4.44-6.17,7.47-7.43.03-.01.06-.03.09-.06.94-.45,1.81-.99,2.61-1.61-.34,2.97-1.65,5.82-3.84,8-2.19,2.2-5,3.54-8.02,3.86h0ZM305.47,112.89c-3.02-.33-5.83-1.67-8.01-3.85-2.17-2.17-3.48-5-3.82-7.98.82.63,1.71,1.18,2.67,1.63.01,0,.03.02.05.02,3.39,1.65,6.17,4.44,7.44,7.47.01.03.03.06.05.08.45.94,1,1.82,1.62,2.63h0ZM308.37,113.83c-.24-.21-.46-.43-.68-.65,1.33-.07,2.63-.33,3.88-.78,1.93-.67,3.96-1,5.92-1s3.77.32,5.4.96c1.33.47,2.69.74,4.05.82-.05.05-.09.1-.14.15-.17.17-.35.34-.53.5-1.2-.11-2.38-.38-3.51-.79-.03,0-.05-.01-.08-.01-1.56-.62-3.3-.94-5.19-.94s-3.85.33-5.65.95c0,0,0,0-.01,0-1.12.4-2.28.66-3.46.78h0ZM317.31,117.26c-3.07,0-5.99-1.08-8.34-2.94,1.03-.14,2.05-.38,3.03-.74.02,0,.03-.01.05-.02,1.74-.6,3.62-.92,5.45-.92s3.57.32,5.09.94c.03.01.05.02.08.02,0,0,.02,0,.03,0,.97.34,1.98.58,2.99.71-2.37,1.9-5.3,2.94-8.38,2.94h0ZM307.09,113.9c-.23-.23-.45-.47-.66-.71.18,0,.35.01.53.01.15,0,.29,0,.44,0,.22.23.45.45.68.67-.33.03-.66.04-.99.04h0ZM327.7,113.2c.16,0,.32,0,.47-.01-.21.24-.43.48-.65.7-.32,0-.63-.02-.95-.04.13-.12.26-.24.39-.37.1-.1.19-.19.28-.29.15,0,.31.01.46.01h0ZM317.31,118.18c-3.62,0-7.05-1.39-9.65-3.75.33-.02.67-.04,1-.08,2.41,1.98,5.46,3.13,8.65,3.13s6.25-1.1,8.69-3.12c.32.03.63.06.95.08-2.6,2.36-6.03,3.75-9.65,3.75h0Z"/></svg>