<?xml version="1.0" encoding="UTF-8"?><svg id="Layer_1" xmlns="http://www.w3.org/2000/svg" viewBox="0 0 87.47 34.98"><defs><style>.cls-1{fill:#fff;}.cls-2{fill:#333;}</style></defs><polygon class="cls-1" points="0 0 0 28.32 11.54 34.98 23.08 28.32 23.08 0 0 0"/><path class="cls-2" d="M20.46,16.67c0-1.2-.48-2.33-1.3-3.16-.01-1.16-.47-2.3-1.32-3.15-.84-.84-1.96-1.31-3.15-1.32-.83-.81-1.96-1.29-3.15-1.29-1.2,0-2.33.48-3.16,1.29-1.19,0-2.31.48-3.15,1.32-.85.85-1.31,1.99-1.32,3.15-.81.83-1.3,1.96-1.3,3.16s.48,2.33,1.3,3.16c.01,1.16.47,2.3,1.32,3.15.84.84,1.96,1.31,3.15,1.32.83.81,1.96,1.29,3.16,1.29s2.33-.48,3.16-1.29c1.19,0,2.31-.48,3.15-1.32.85-.85,1.3-1.99,1.32-3.15.81-.83,1.3-1.96,1.3-3.16ZM18.74,15.03s0,.02,0,.02c-.38.95-.38,2.17,0,3.27,0,0,0,0,0,0,.12.35.2.7.23,1.06-.04.05-.09.1-.14.14-.02.02-.04.04-.06.06-.02-.4-.1-.8-.24-1.19-.4-1.14-.4-2.41-.01-3.41.14-.4.22-.82.24-1.23.07.07.14.14.2.21-.03.36-.11.71-.23,1.06ZM19.12,14.15c.56.71.89,1.59.89,2.53s-.31,1.82-.89,2.53c-.04-.31-.11-.63-.22-.93,0,0,0-.01,0-.02-.37-1.08-.37-2.27,0-3.18,0-.01,0-.02,0-.03.1-.3.17-.6.21-.9ZM18.99,19.76c-.07.07-.14.13-.21.2,0-.09,0-.19,0-.28.03-.03.07-.07.1-.1.03-.03.07-.07.1-.1,0,.1.01.19.01.29ZM17.79,20.6s-.01,0-.02.01c-.94.4-1.8,1.27-2.31,2.32,0,0,0,0,0,0-.16.33-.36.64-.59.92-.07,0-.13,0-.2,0-.03,0-.05,0-.08,0,.27-.3.5-.64.67-1,.53-1.09,1.42-2,2.41-2.43.38-.18.73-.41,1.04-.69,0,.09,0,.19,0,.28-.28.23-.58.43-.92.58ZM18.69,20.25c-.1.9-.5,1.76-1.16,2.42-.66.66-1.51,1.07-2.42,1.17.19-.25.36-.52.5-.82,0,0,0-.01,0-.02.5-1.02,1.34-1.86,2.26-2.24.01,0,.02-.01.03-.02.28-.14.55-.3.79-.49ZM14.62,24.13c-.1,0-.19,0-.29-.01.04-.04.08-.07.12-.11.03-.03.06-.06.08-.09.05,0,.09,0,.14,0s.1,0,.14,0c-.06.07-.13.14-.2.21ZM13.18,23.87s-.02,0-.02,0c-.47-.19-1-.28-1.57-.28s-1.16.1-1.71.29c0,0,0,0,0,0-.34.12-.69.2-1.04.23-.07-.06-.14-.13-.21-.2.4-.02.79-.1,1.17-.23.58-.2,1.19-.3,1.79-.3s1.14.1,1.63.29c.4.14.81.22,1.22.25-.01.01-.03.03-.04.04-.05.05-.11.1-.16.15-.36-.03-.72-.11-1.06-.24ZM14.07,24.26c-.72.57-1.6.89-2.53.89s-1.81-.33-2.52-.89c.31-.04.62-.12.91-.22,0,0,.01,0,.02,0,.52-.18,1.09-.28,1.65-.28s1.08.1,1.54.29c0,0,.02,0,.02,0,0,0,0,0,0,0,.29.1.6.17.9.22ZM8.45,24.13c-.07-.07-.14-.14-.2-.21.05,0,.11,0,.16,0,.04,0,.09,0,.13,0,.07.07.13.14.21.2-.1,0-.2.01-.3.01ZM7.61,22.93s0-.01-.01-.02c-.4-.94-1.27-1.8-2.32-2.31,0,0,0,0,0,0-.33-.16-.63-.35-.91-.58,0-.09,0-.19,0-.28.29.27.63.49.99.66,1.09.53,2,1.43,2.43,2.41.18.39.42.73.7,1.04-.02,0-.05,0-.07,0-.07,0-.15,0-.22,0-.23-.28-.43-.58-.59-.92ZM7.96,23.83c-.91-.1-1.76-.5-2.42-1.16-.66-.65-1.05-1.51-1.15-2.41.25.19.52.36.81.49,0,0,0,0,.01,0,1.02.5,1.86,1.34,2.25,2.25,0,0,0,.02.02.02.14.28.3.55.49.8ZM4.09,19.47c.07.07.13.14.21.21,0,.1,0,.19,0,.29-.08-.07-.15-.13-.22-.2,0-.1,0-.2.01-.29ZM4.34,18.32s0-.02,0-.02c.38-.95.38-2.17,0-3.27,0,0,0,0,0,0-.12-.35-.2-.7-.23-1.06.06-.07.13-.14.2-.2.02.4.1.79.23,1.18.4,1.15.4,2.42.01,3.42-.14.4-.22.81-.24,1.23-.07-.07-.14-.14-.2-.21.03-.36.11-.71.23-1.06ZM3.95,19.2c-.56-.71-.89-1.59-.89-2.53s.32-1.82.89-2.53c.04.31.11.62.22.93,0,0,0,0,0,.01.37,1.08.37,2.27,0,3.18,0,.01,0,.02,0,.03-.1.3-.17.6-.21.9ZM4.08,13.59c.07-.07.14-.13.21-.2,0,.1,0,.19,0,.29-.07.07-.14.13-.2.2,0-.1-.01-.2-.01-.3ZM5.28,12.75s.01,0,.02-.01c.94-.4,1.8-1.27,2.31-2.32.16-.33.35-.63.58-.91.08,0,.15,0,.23,0,.02,0,.03,0,.05,0-.27.3-.5.64-.67,1-.52,1.06-1.44,2-2.4,2.42-.39.18-.73.42-1.04.7,0-.1,0-.19,0-.29.28-.23.58-.43.91-.58ZM4.39,13.1c.1-.9.5-1.76,1.16-2.42.65-.65,1.5-1.06,2.41-1.16-.19.24-.35.51-.49.79,0,.01-.02.03-.02.04-.5,1.02-1.34,1.86-2.25,2.24,0,0-.02,0-.03.02-.28.14-.55.3-.79.49ZM8.45,9.22c.1,0,.19,0,.29.01-.04.04-.08.07-.12.11-.03.03-.06.06-.09.09-.04,0-.08,0-.11,0-.06,0-.11,0-.17,0,.07-.08.13-.15.2-.22ZM9.89,9.47s.02,0,.02,0c.47.19.99.28,1.56.28s1.16-.1,1.71-.29c.34-.12.69-.2,1.05-.24.07.06.14.13.21.2-.4.02-.8.1-1.18.24-.56.2-1.18.29-1.78.29s-1.15-.09-1.63-.28c-.4-.14-.82-.22-1.23-.24.02-.02.03-.03.05-.05.05-.05.11-.1.16-.15.36.03.72.11,1.06.24ZM9.01,9.09c.72-.57,1.6-.89,2.53-.89h0c.92,0,1.81.33,2.52.89-.3.04-.6.11-.9.22-.02,0-.03,0-.04.02-.52.18-1.09.27-1.64.27s-1.08-.1-1.54-.28c-.01,0-.02,0-.03,0-.29-.1-.6-.18-.91-.22ZM14.62,9.22c.07.07.13.14.2.21-.05,0-.11,0-.16,0-.04,0-.09,0-.13,0-.07-.07-.13-.14-.2-.2.1,0,.2-.01.3-.01ZM15.46,10.42s0,.01.01.02c.4.94,1.27,1.8,2.32,2.31.33.15.63.35.91.58,0,.09,0,.19,0,.28-.3-.27-.63-.49-1-.67-1.09-.53-1.99-1.42-2.42-2.4-.18-.39-.42-.74-.7-1.04.02,0,.05,0,.07,0,.07,0,.14,0,.22,0,.23.28.43.58.59.92ZM15.11,9.52c.91.1,1.76.5,2.42,1.16.65.65,1.05,1.51,1.15,2.41-.24-.18-.5-.35-.78-.48-.01-.01-.03-.02-.05-.02-1.02-.5-1.85-1.34-2.23-2.25,0-.01-.01-.02-.02-.03-.14-.28-.3-.55-.49-.79ZM18.71,13.7c-.01.43-.09.85-.24,1.27-.39,1.01-.39,2.3.01,3.46.14.4.22.81.23,1.23-.31.29-.67.53-1.06.71-.99.43-1.9,1.35-2.44,2.46-.18.38-.41.72-.7,1.03-.42-.02-.85-.1-1.26-.25-.49-.19-1.06-.29-1.66-.29s-1.23.11-1.81.31c-.39.14-.79.22-1.21.23-.29-.31-.54-.67-.73-1.06-.43-.99-1.35-1.9-2.46-2.44-.38-.18-.72-.42-1.02-.69.01-.42.09-.85.24-1.26.39-1.01.39-2.3-.01-3.47-.14-.4-.22-.81-.23-1.22.31-.29.66-.53,1.06-.72.98-.43,1.91-1.37,2.44-2.45.18-.38.41-.72.69-1.03.43.01.86.09,1.27.24.48.19,1.06.29,1.66.29s1.24-.1,1.8-.3c.39-.14.8-.22,1.22-.24.29.31.54.67.73,1.07.43.99,1.35,1.9,2.45,2.44.38.18.72.42,1.03.7ZM18.77,13.67c0-.1,0-.19,0-.29.08.07.15.13.22.2,0,.1,0,.19-.01.29-.07-.07-.14-.14-.21-.21ZM17.73,10.48c.77.77,1.21,1.8,1.26,2.86-.07-.07-.15-.13-.23-.2-.09-.94-.5-1.83-1.18-2.52-.69-.69-1.57-1.1-2.53-1.19-.06-.08-.13-.15-.19-.22,1.08.05,2.1.49,2.87,1.27ZM14.45,9.05c-.1,0-.2.01-.3.02-.73-.6-1.65-.94-2.61-.94h0c-.97,0-1.89.33-2.62.94-.1-.01-.19-.02-.29-.02.79-.71,1.82-1.13,2.91-1.13,1.09,0,2.13.42,2.91,1.13ZM5.35,10.48c.77-.77,1.78-1.22,2.87-1.26-.07.07-.13.15-.2.23-.94.09-1.83.5-2.52,1.18-.69.69-1.09,1.59-1.18,2.52-.08.06-.15.13-.22.19.05-1.06.49-2.09,1.26-2.86ZM2.79,16.67c0-1.09.42-2.13,1.13-2.92,0,.1.01.2.02.3-.6.73-.95,1.65-.95,2.62s.35,1.89.95,2.62c-.01.1-.02.2-.02.29-.71-.79-1.13-1.82-1.13-2.92ZM5.35,22.86c-.77-.77-1.21-1.8-1.26-2.86.07.07.15.13.23.2.09.94.5,1.83,1.18,2.52.69.69,1.57,1.1,2.53,1.19.06.08.13.15.19.23-1.08-.05-2.1-.49-2.87-1.26ZM8.63,24.29c.1,0,.2-.01.3-.02.73.6,1.65.94,2.61.94s1.89-.33,2.62-.94c.1.01.19.02.29.02-.79.71-1.82,1.13-2.91,1.13s-2.13-.42-2.91-1.13ZM17.73,22.86c-.77.77-1.78,1.22-2.87,1.26.07-.07.13-.15.19-.22.95-.09,1.84-.5,2.53-1.19.69-.69,1.09-1.59,1.18-2.52.08-.06.15-.13.22-.19-.05,1.06-.49,2.09-1.26,2.86ZM19.13,19.3c.61-.73.95-1.65.95-2.63s-.35-1.9-.95-2.62c.01-.1.02-.2.02-.29.71.79,1.13,1.82,1.13,2.92s-.42,2.13-1.13,2.92c0-.1-.01-.19-.02-.29Z"/></svg>