<?xml version="1.0" encoding="UTF-8"?>
<svg id="Layer_1" data-name="Layer 1" xmlns="http://www.w3.org/2000/svg" viewBox="0 0 439.34 356.7">
  <defs>
    <style>
      .cls-1 {
        fill: #231f20;
      }

      .cls-2 {
        fill: #cdd4d4;
      }

      .cls-3 {
        fill: #e4e4e2;
      }

      .cls-4 {
        fill: #42424f;
      }
    </style>
  </defs>
  <g>
    <circle class="cls-3" cx="217.29" cy="124.48" r="123.88"/>
    <path class="cls-4" d="M217.29,28.08c-49.2,0-89.08,43.16-89.08,96.39s39.88,96.39,89.08,96.39,89.08-43.16,89.08-96.39-39.88-96.39-89.08-96.39Z"/>
    <path class="cls-2" d="M213.16,35.94c-.21,12.41-.37,25.83-.48,39.99-10.15-.41-19.8-2.13-28.61-4.94,6.87-18.53,17.22-31.53,29.1-35.06h0ZM212.49,119.47c-12.78,0-25.22.06-37.17.14.37-13.83,2.3-26.82,5.43-38.28,9.89,2.89,20.61,4.64,31.85,5.03-.07,10.7-.11,21.77-.11,33.11ZM212.6,161.49c-11.34.39-22.15,2.18-32.12,5.11-3.01-11.33-4.84-24.11-5.17-37.69,11.95.08,24.39.13,37.18.14,0,11.11.05,21.95.11,32.43h0ZM191.59,39.21c-6.34,7.04-11.81,16.86-16,28.64-5.49-2.33-10.56-5.11-15.11-8.26,8.75-9.13,19.34-16.16,31.12-20.38h-.01ZM152.79,68.8c5.88,3.78,12.42,7.04,19.5,9.7-3.3,12.37-5.31,26.33-5.67,41.17-10.97.09-21.48.22-31.4.37.82-19.31,7.26-37.02,17.58-51.25h-.01ZM152.46,179.27c-10.12-14.14-16.43-31.68-17.25-50.78,9.92.15,20.43.27,31.4.37.32,14.6,2.24,28.36,5.41,40.59-7.11,2.7-13.67,6-19.56,9.82h0ZM160.08,188.52c4.55-3.2,9.64-6.02,15.16-8.39,4.12,11.87,9.52,21.81,15.8,28.99-11.73-4.3-22.27-11.42-30.96-20.6ZM183.7,176.97c8.91-2.87,18.68-4.64,28.97-5.05.12,14.58.28,28.37.5,41.1-12.09-3.59-22.6-16.99-29.47-36.05h0ZM281.86,68.9c10.27,14.2,16.68,31.88,17.5,51.15-9.92-.15-20.43-.27-31.4-.37-.36-14.81-2.36-28.75-5.65-41.1,7.09-2.65,13.65-5.91,19.55-9.68h0ZM274.19,59.69c-4.57,3.15-9.66,5.93-15.17,8.25-4.2-11.82-9.68-21.68-16.03-28.73,11.81,4.23,22.44,11.3,31.21,20.48h-.01ZM222.08,129.06c12.79,0,25.23-.06,37.18-.14-.33,13.55-2.16,26.31-5.15,37.62-9.98-2.92-20.8-4.68-32.14-5.06.06-10.48.1-21.32.11-32.43h0ZM221.97,86.36c11.23-.37,21.96-2.11,31.86-4.98,3.13,11.45,5.05,24.42,5.42,38.22-11.95-.08-24.38-.13-37.17-.14,0-11.34-.05-22.41-.11-33.11h0ZM250.53,71.06c-8.83,2.79-18.48,4.49-28.64,4.88-.11-14.17-.28-27.59-.48-40,11.89,3.53,22.25,16.55,29.12,35.12ZM221.4,213.01c.21-12.73.38-26.53.5-41.11,10.29.4,20.07,2.14,28.99,4.99-6.87,19.1-17.38,32.52-29.49,36.11h0ZM243.53,209.12c6.3-7.2,11.71-17.16,15.83-29.07,5.54,2.36,10.65,5.18,15.22,8.38-8.71,9.23-19.28,16.38-31.05,20.7h0ZM282.19,179.17c-5.91-3.82-12.49-7.11-19.62-9.8,3.16-12.22,5.07-25.95,5.39-40.52,10.97-.09,21.48-.22,31.4-.37-.81,19.06-7.09,36.56-17.17,50.68h0Z"/>
  </g>
  <g>
    <path class="cls-1" d="M135.69,339.99l-9.29-20.45-3.38-7.63v28.08h-8.21v-47.96h7.7l8.86,20.81,3.17,7.63v-28.44h8.06v47.96h-6.91Z"/>
    <path class="cls-1" d="M164.27,299.96v40.04h-9v-40.04h-8.86v-7.92h26.64v7.92h-8.78Z"/>
    <path class="cls-1" d="M194.15,340.28v-16.06c0-2.23-1.15-4.1-3.67-4.1h-4.68v19.87h-8.93v-47.96h14.76c6.55,0,10.95,3.74,10.95,10.44v6.77c0,3.6-1.66,6.26-5.4,7.42,3.74,1.01,5.54,4.18,5.54,7.27v16.35h-8.57ZM193.86,302.84c0-2.16-.94-3.46-3.17-3.46h-4.9v14.11h4.54c2.3,0,3.53-1.22,3.53-3.82v-6.84Z"/>
    <path class="cls-1" d="M229.29,339.99l-9.29-20.45-3.38-7.63v28.08h-8.21v-47.96h7.7l8.86,20.81,3.17,7.63v-28.44h8.06v47.96h-6.91Z"/>
    <path class="cls-1" d="M257.87,299.96v40.04h-9v-40.04h-8.86v-7.92h26.64v7.92h-8.78Z"/>
    <path class="cls-1" d="M291.28,339.99l-9.29-20.45-3.38-7.63v28.08h-8.21v-47.96h7.7l8.86,20.81,3.17,7.63v-28.44h8.06v47.96h-6.91Z"/>
    <path class="cls-1" d="M304.38,339.99v-47.96h8.93v40.04h13.39v7.92h-22.32Z"/>
  </g>
</svg>